<svg xmlns="http://www.w3.org/2000/svg" viewBox="0 0 192 192">
  <defs>
    <linearGradient id="appGrad" x1="0%" y1="0%" x2="100%" y2="100%">
      <stop offset="0%" style="stop-color:#06b6d4"/>
      <stop offset="50%" style="stop-color:#4f46e5"/>
      <stop offset="100%" style="stop-color:#7c3aed"/>
    </linearGradient>
    <linearGradient id="greenGrad" x1="0%" y1="0%" x2="100%" y2="100%">
      <stop offset="0%" style="stop-color:#10b981"/>
      <stop offset="100%" style="stop-color:#06b6d4"/>
    </linearGradient>
  </defs>

  <!-- Rounded Square Background -->
  <rect x="8" y="8" width="176" height="176" rx="40" fill="url(#appGrad)"/>

  <!-- Calculator -->
  <rect x="48" y="38" width="96" height="116" rx="12" fill="white"/>

  <!-- Display -->
  <rect x="58" y="48" width="76" height="32" rx="6" fill="#1e293b"/>
  <text x="124" y="72" font-family="Arial" font-size="20" font-weight="bold" fill="#10b981" text-anchor="end">$2,025</text>

  <!-- Button Rows -->
  <rect x="58" y="90" width="16" height="16" rx="3" fill="#e2e8f0"/>
  <rect x="78" y="90" width="16" height="16" rx="3" fill="#e2e8f0"/>
  <rect x="98" y="90" width="16" height="16" rx="3" fill="#e2e8f0"/>
  <rect x="118" y="90" width="16" height="16" rx="3" fill="url(#greenGrad)"/>

  <rect x="58" y="112" width="16" height="16" rx="3" fill="#e2e8f0"/>
  <rect x="78" y="112" width="16" height="16" rx="3" fill="#e2e8f0"/>
  <rect x="98" y="112" width="16" height="16" rx="3" fill="#e2e8f0"/>
  <rect x="118" y="112" width="16" height="16" rx="3" fill="url(#greenGrad)"/>

  <rect x="58" y="134" width="16" height="16" rx="3" fill="#e2e8f0"/>
  <rect x="78" y="134" width="16" height="16" rx="3" fill="#e2e8f0"/>
  <rect x="98" y="134" width="36" height="16" rx="3" fill="#4f46e5"/>
</svg>
