<svg xmlns="http://www.w3.org/2000/svg" viewBox="0 0 200 200">
  <defs>
    <linearGradient id="logoGradientDark" x1="0%" y1="0%" x2="100%" y2="100%">
      <stop offset="0%" style="stop-color:#06b6d4"/>
      <stop offset="50%" style="stop-color:#4f46e5"/>
      <stop offset="100%" style="stop-color:#7c3aed"/>
    </linearGradient>
  </defs>

  <!-- Background Circle -->
  <circle cx="100" cy="100" r="90" fill="url(#logoGradientDark)"/>

  <!-- Calculator Icon -->
  <rect x="60" y="50" width="80" height="100" rx="10" fill="white"/>

  <!-- Display -->
  <rect x="70" y="60" width="60" height="25" rx="5" fill="#1e293b"/>
  <text x="120" y="80" font-family="monospace" font-size="14" font-weight="bold" fill="#10b981" text-anchor="end">$</text>

  <!-- Buttons Grid -->
  <rect x="70" y="95" width="12" height="12" rx="2" fill="#e2e8f0"/>
  <rect x="87" y="95" width="12" height="12" rx="2" fill="#e2e8f0"/>
  <rect x="104" y="95" width="12" height="12" rx="2" fill="#e2e8f0"/>
  <rect x="121" y="95" width="12" height="12" rx="2" fill="#10b981"/>

  <rect x="70" y="112" width="12" height="12" rx="2" fill="#e2e8f0"/>
  <rect x="87" y="112" width="12" height="12" rx="2" fill="#e2e8f0"/>
  <rect x="104" y="112" width="12" height="12" rx="2" fill="#e2e8f0"/>
  <rect x="121" y="112" width="12" height="12" rx="2" fill="#06b6d4"/>

  <rect x="70" y="129" width="12" height="12" rx="2" fill="#e2e8f0"/>
  <rect x="87" y="129" width="12" height="12" rx="2" fill="#e2e8f0"/>
  <rect x="104" y="129" width="29" height="12" rx="2" fill="#4f46e5"/>
</svg>
